<?xml version="1.0" encoding="UTF-8" standalone="no"?>
<svg
   xmlns:dc="http://purl.org/dc/elements/1.1/"
   xmlns:cc="http://creativecommons.org/ns#"
   xmlns:rdf="http://www.w3.org/1999/02/22-rdf-syntax-ns#"
   xmlns:svg="http://www.w3.org/2000/svg"
   xmlns="http://www.w3.org/2000/svg"
   viewBox="0 0 377.94666 245.66667"
   height="245.66667"
   width="377.94666"
   xml:space="preserve"
   id="svg2"
   version="1.1"><metadata
     id="metadata8"><rdf:RDF><cc:Work
         rdf:about=""><dc:format>image/svg+xml</dc:format><dc:type
           rdf:resource="http://purl.org/dc/dcmitype/StillImage" /></cc:Work></rdf:RDF></metadata><defs
     id="defs6" /><g
     transform="matrix(1.3333333,0,0,-1.3333333,0,245.66667)"
     id="g10"><g
       transform="scale(0.1)"
       id="g12"><path
         id="path14"
         style="fill:#1c4f9c;fill-opacity:1;fill-rule:nonzero;stroke:none"
         d="M 2834.61,0 H 0 V 1842.5 H 2834.61 V 0" /><path
         id="path16"
         style="fill:#ffffff;fill-opacity:1;fill-rule:evenodd;stroke:none"
         d="m 2591.51,931.438 35.33,-121.188 h -86.58 l -23.47,80.414 c 21.57,13.899 47.54,27.305 74.72,40.774 z m -287,18.535 -13.95,53.507 -29.76,-75.257 c 14.31,7.336 29.05,14.629 43.71,21.75 z m -84.85,134.157 -39.37,-202.4 89.7,202.4 h 88.66 l 23.7,-94.267 c 50.94,28.697 86.97,58.687 78.08,94.267 h 86.49 l 29.2,-99.931 c 56.26,30.481 97.83,62.001 88.3,99.931 h 86.54 c 0,-115.243 -349.07,-170.985 -323.35,-273.88 h -86.55 l -22.04,84.32 c 24.38,14.59 49.18,27.493 77.02,41.121 l 10.26,-40.855 c 27.51,17.996 60.85,34.82 94.33,51.269 l -16.1,55.385 C 2385.37,935.188 2204.82,885.273 2223.54,810.25 h -135.4 l 38.02,195.65 -88.79,-195.65 h -53.46 l -13.47,195.65 -38.81,-195.65 h -63.09 l 53.27,273.88 h 109.78 l 10.82,-145.282 66.62,145.282 h 110.63 v 0" /><path
         id="path18"
         style="fill:#ffffff;fill-opacity:1;fill-rule:nonzero;stroke:none"
         d="m 271.594,1009.32 c -8.563,18.98 -29.25,27.44 -48.649,27.44 -25.058,0 -39.367,-10.28 -39.207,-23.62 0.203,-16.285 26.832,-23.929 56.621,-33.894 43.954,-15.144 78.008,-33.125 78.473,-71.453 0.719,-58.555 -62.656,-104.063 -143.66,-104.063 -45.555,0 -101.3517,21.918 -106.0978,71.309 l 63.7148,11.367 c 4.375,-19.304 32.621,-28.41 49.731,-28.41 19.765,0 50.527,6.137 50.246,29.692 -0.211,17.097 -28.481,24.656 -58.278,34.609 -29.699,9.449 -73.703,27.293 -74.222,69.949 -0.8715,71.034 75.257,96.234 126.582,96.234 38.445,0 96.027,-16.84 106.535,-65.84 l -61.789,-13.32" /><path
         id="path20"
         style="fill:#ffffff;fill-opacity:1;fill-rule:nonzero;stroke:none"
         d="m 472.461,964.473 h -37.996 l -15.477,-73.809 c -1.004,-4.258 -1.82,-8.34 -1.761,-12.851 0.156,-13.04 12.324,-14.168 23.347,-14.168 h 9.563 l -11.153,-52.844 c -14.824,-0.75 -29.211,-1.481 -44.144,-1.481 -24.274,0 -58.496,-1.16 -58.902,31.969 -0.133,10.715 1.66,21.594 5.273,37.59 l 18.336,85.594 H 331.41 l 8.961,41.887 h 29.27 l 12.941,61.88 h 74.242 l -13.402,-61.88 h 38.031 l -8.992,-41.887" /><path
         id="path22"
         style="fill:#ffffff;fill-opacity:1;fill-rule:nonzero;stroke:none"
         d="m 600.973,967.48 c -24.391,0 -40.524,-14.46 -46.285,-38.371 h 76.398 c 0.363,2.637 0.668,5.305 0.629,8.379 -0.231,19.004 -13.664,29.992 -30.742,29.992 z m 97.418,-74.128 H 547.438 c -0.735,-3.418 -1.383,-7.922 -1.34,-11.438 0.246,-19.734 14.449,-32.258 33.457,-32.258 13.66,0 26.621,6.074 34.394,17.153 h 71.848 c -23.777,-44.528 -69.52,-61.61 -117.496,-61.61 -51.387,0 -95.293,23.141 -95.946,76.715 -0.91,74.18 60.79,129.996 133.79,129.996 58.55,0 95.382,-33.015 96.039,-86.566 0.121,-10.207 -1.907,-24.028 -3.793,-31.992" /><path
         id="path24"
         style="fill:#ffffff;fill-opacity:1;fill-rule:nonzero;stroke:none"
         d="M 937.602,928.699 912.398,810.801 h -75.324 l 22.344,103.078 c 1.066,5.332 1.777,10.699 1.715,15.976 -0.192,15.614 -7.91,23.59 -23.516,23.59 -24.34,0 -37.027,-22.156 -41.277,-42.566 L 774.719,810.801 h -75.34 l 42.129,195.559 h 68.109 l -7.613,-35.422 c 18.809,21.66 49.351,40.972 78.285,40.972 36.066,0 60.277,-16.273 60.727,-53.211 0.129,-10.144 -1.309,-20.144 -3.414,-30" /><path
         id="path26"
         style="fill:#ffffff;fill-opacity:1;fill-rule:nonzero;stroke:none"
         d="m 1065.35,892.227 c -24.26,-5.332 -46.99,-10.313 -46.78,-27 0.18,-14.836 12.34,-19.028 23.45,-19.028 30.37,0 44.08,26.653 47.92,54.16 -7.87,-3.589 -16.28,-6.238 -24.59,-8.132 z m 106.73,39.519 -25.5,-120.945 h -71.9 l 4.7,23.551 c -26.33,-20.461 -49.1,-29.153 -82.505,-29.153 -28.18,0 -57.598,14.672 -57.992,47.172 -0.266,21.567 12.344,42.055 27.426,52.758 24.879,17.5 61.021,20.484 99.301,25.437 20.95,2.727 35.72,7.664 35.54,22.879 -0.15,12.2 -15.4,14.856 -24.54,14.856 -14.86,0 -28.14,-4.617 -33.28,-19.356 h -72.494 c 13.328,54.715 72.524,62.965 120.824,62.965 33.04,0 83.65,-1.8 84.18,-45.816 0.15,-11.883 -1.23,-22.864 -3.76,-34.348" /><path
         id="path28"
         style="fill:#ee2722;fill-opacity:1;fill-rule:nonzero;stroke:none"
         d="m 1542.72,934.063 c 1.14,8.476 -0.65,15.195 -4.61,20 -3.96,5.046 -10.11,7.722 -18.5,7.722 -28.8,0 -38.87,-29.949 -42.91,-52.82 -5.09,-29.11 2.59,-48.235 25.02,-48.235 19.92,0 30.08,13.625 35,28.704 h 77.5 c -8.6,-29.075 -25.44,-49.356 -47.18,-62.344 -21.47,-12.481 -47.43,-18.031 -74.38,-18.031 -62.35,0 -104.17,35.101 -92.64,100.265 11.66,66.145 64.84,104.086 128.68,104.086 51.64,0 96.36,-22.062 91.9,-79.347 h -77.88" /><path
         id="path30"
         style="fill:#ee2722;fill-opacity:1;fill-rule:nonzero;stroke:none"
         d="m 1766.14,971.316 c -24.39,0 -40.72,-14.453 -46.74,-38.347 h 76.37 c 0.39,2.629 0.75,5.293 0.75,8.371 0,19.004 -13.32,29.976 -30.38,29.976 z m 96.52,-74.109 h -150.93 c -0.78,-3.418 -1.5,-7.922 -1.5,-11.426 0,-19.765 14.06,-32.285 33.02,-32.285 13.69,0 26.74,6.094 34.65,17.156 h 71.84 c -24.3,-44.504 -70.27,-61.593 -118.26,-61.593 -51.36,0 -95.02,23.132 -95.02,76.722 0,74.16 62.43,129.989 135.38,129.989 58.56,0 94.99,-33.028 94.99,-86.559 0,-10.227 -2.18,-24.016 -4.17,-32.004" /><path
         id="path32"
         style="fill:#ee2722;fill-opacity:1;fill-rule:nonzero;stroke:none"
         d="m 1408.85,1084.21 h -79.05 l -53.31,-273.96 h 79.07 l 53.29,273.96 v 0" /></g></g></svg>